<?xml version="1.0" encoding="UTF-8"?>
<svg id="Layer_2" data-name="Layer 2" xmlns="http://www.w3.org/2000/svg" viewBox="0 0 211.35 144.79">
  <defs>
    <style>
      .cls-1 {
        fill: #fff;
      }

      .cls-2 {
        fill: #71ba83;
      }
    </style>
  </defs>
  <g id="Layer_1-2" data-name="Layer 1">
    <g>
      <g id="_5eoLLz.tif" data-name="5eoLLz.tif">
        <g>
          <path class="cls-2" d="M207.77,82.33H5.72C2.74,82.73,0,80.84,0,77.82V29.48c0-2.2,1.71-3.96,3.79-4.49L102.39,0h6.65s98.16,24.95,98.16,24.95c2.31.59,4.11,2.72,4.11,5.05l.03,46.32c.13,2.6-.88,4.63-3.57,6.01ZM131.72,59.87c-.99,3.06-3,3.93-5.08,4.05-1.96.11-4.38-.84-5.6-2.73-2.89-4.49-2.81-10.65-.05-15.16,1.42-2.32,4.07-3.12,6.51-2.54,2.32.55,3.36,2.94,3.78,5.45h10.21c-.4-2.79-1.08-5.32-2.69-7.33-5.77-7.18-16.96-7.6-23.46-2.2-4.52,3.75-6,9.23-6.04,14.93-.05,9.72,6.89,17.1,16.65,17.14,7.67.04,14.38-4.69,15.3-12.7.23-1.97.18-4.22.17-6.38h-16.5s.06,7.27.06,7.27l6.73.21ZM41.1,60.16c-.11-3.84-1.86-6.46-5.46-7.6,3.36-2.07,4.3-6.06,3.23-9.78-2.67-9.2-17.8-5.46-25.77-6.3v34.3s18.65-.21,18.65-.21c5.87-.07,9.53-4.69,9.36-10.41ZM64.02,36.53v22.74c-.73,3.07-3.24,5.09-6.25,4.69-2.56-.34-5-2.91-5.02-5.99l-.17-21.42h-9.45s.11,22.21.11,22.21c.04,8.11,7.41,12.57,14.72,12.78,9.21.27,16.07-5.84,16.03-15.23l-.09-19.82-9.88.03ZM107.67,52.9c-.26-8.45-5.81-15.43-14.51-16.2-5.1-.45-10.47-.13-15.66-.1l.02,34.11c5.37-.18,10.6.41,15.49-.18,9.28-1.13,14.94-8.61,14.66-17.64ZM166.87,56.89v-7.35s-12.45,0-12.45,0v-5.64s14.9-.06,14.9-.06l.04-7.26-24.79-.09-.02,34.25h24.78s-.1-7.34-.1-7.34l-14.82-.03v-6.48s12.47,0,12.47,0ZM190.36,70.55v-26.68s9.99,0,9.99,0l-.02-7.36h-29.94s-.02,7.35-.02,7.35l10.11.02v26.94s9.87-.28,9.87-.28Z"/>
          <path d="M41.1,60.16c.17,5.73-3.49,10.35-9.36,10.41l-18.65.21v-34.3c7.97.85,23.1-2.9,25.77,6.3,1.08,3.71.13,7.71-3.23,9.78,3.6,1.13,5.35,3.76,5.46,7.6ZM27.59,49.8c.91-.03,1.91-1.85,2.02-2.73.1-.78-.56-2.82-1.34-2.95-1.37-.22-3.57-.23-5.17-.25v6.08s4.49-.16,4.49-.16ZM29.76,63.25c1.97-1.23,2.07-5.59-.38-6.09-1.97-.4-4.18-.27-6.3-.29v6.58s6.67-.19,6.67-.19Z"/>
          <path d="M131.72,59.87l-6.73-.21-.06-7.27h16.5c0,2.16.06,4.42-.17,6.39-.92,8.01-7.64,12.74-15.3,12.7-9.76-.05-16.7-7.42-16.65-17.14.03-5.69,1.52-11.18,6.04-14.93,6.5-5.4,17.69-4.97,23.46,2.2,1.61,2,2.28,4.53,2.69,7.33h-10.21c-.43-2.51-1.46-4.9-3.78-5.45-2.45-.58-5.09.22-6.51,2.54-2.76,4.5-2.83,10.67.05,15.16,1.22,1.89,3.64,2.84,5.6,2.73,2.08-.12,4.09-.99,5.08-4.05Z"/>
          <path d="M107.67,52.9c.28,9.03-5.37,16.51-14.66,17.64-4.89.6-10.12,0-15.49.18l-.02-34.11c5.19-.04,10.55-.36,15.66.1,8.7.77,14.25,7.75,14.51,16.2ZM95.19,61.36c3.59-4.17,3.72-10.56.68-14.8-2.06-2.88-5.94-3.13-8.88-2.47v19.11c2.45.28,6.07.61,8.2-1.85Z"/>
          <path d="M64.02,36.53l9.88-.03.09,19.82c.04,9.39-6.82,15.5-16.03,15.23-7.31-.21-14.68-4.67-14.72-12.78l-.11-22.22h9.45s.17,21.43.17,21.43c.02,3.09,2.46,5.66,5.02,5.99,3.02.4,5.53-1.63,6.26-4.69v-22.74Z"/>
          <polygon points="166.87 56.89 154.4 56.89 154.4 63.37 169.23 63.4 169.33 70.74 144.55 70.73 144.57 36.48 169.36 36.57 169.32 43.83 154.41 43.88 154.42 49.52 166.87 49.53 166.87 56.89"/>
          <polygon points="190.36 70.55 180.48 70.83 180.49 43.89 170.37 43.87 170.39 36.51 200.33 36.51 200.34 43.88 190.35 43.87 190.36 70.55"/>
          <path class="cls-2" d="M29.76,63.25l-6.68.19v-6.58c2.12.02,4.33-.11,6.3.29,2.45.5,2.35,4.86.38,6.09Z"/>
          <path class="cls-2" d="M27.59,49.8l-4.5.16v-6.08c1.61.02,3.82.03,5.18.25.78.13,1.45,2.17,1.34,2.95-.12.88-1.11,2.69-2.02,2.73Z"/>
          <path class="cls-2" d="M95.19,61.36c-2.13,2.46-5.75,2.13-8.19,1.85v-19.11c2.93-.67,6.81-.41,8.87,2.47,3.04,4.23,2.91,10.63-.68,14.8Z"/>
        </g>
      </g>
      <path d="M206.72,144.76l-201.49.02C2.1,144.79,0,142.72,0,139.69l.03-46.85c0-2.22,1.9-4.51,4.24-4.51h203.32c1.89.93,3.08,2.29,3.75,4.15v46.27c0,2.4-1.42,6.02-4.62,6.02ZM174.5,127.48c1.68-3.07,2.03-6.5.42-9.42-1.24-2.24-3.76-4.27-6.17-5.09l-8.23-2.79c-1.37-.46-3.94-1.75-3.39-3.5s3.12-2.16,4.82-1.79c1.45.32,2.79,1.49,3.82,3.22l9.52.16c.08-3.59-2.24-6.85-5.66-8.73-8.18-4.49-20.86-2.15-22.07,6.7-1.9,13.96,17.07,10.98,18.77,16.72-.8,2.84-4.28,2.95-6.53,2.34s-3.95-2.28-4.43-5.07l-8.98.03c-.39,3.48,1.1,6.23,3.43,8.6,6.37,6.48,21.05,5.25,24.69-1.39ZM54.19,132.16l.07-26.43,10.26-.38-.08-7.56-29.7.05.07,7.51,9.84.4.02,26.46,9.52-.07ZM96.5,132.19v-34.39s-9.47,0-9.47,0l-.06,13.37-10.91.07-.08-13.46-9.51.03v34.39s9.56.06,9.56.06v-14.01s10.98,0,10.98,0v14.01s9.49-.07,9.49-.07ZM130.92,98.12l-9.47.07-.2,21.32c-.03,3.4-2.16,5.76-5.3,6.07-2.18.22-5.85-1.49-5.87-4.55l-.16-23.15-9.84-.07.04,21.9c0,3.15,1.28,6.65,3.63,8.89,6.27,6,16.82,6.24,23.27.23,1.98-1.85,3.8-5.39,3.81-8.04l.09-22.67ZM144.46,132.2l-.08-34.4-9.86.08.02,34.38,9.92-.06Z"/>
      <polygon class="cls-1" points="96.5 132.19 87.01 132.26 87.01 118.25 76.02 118.25 76.03 132.27 66.48 132.2 66.47 97.81 75.98 97.78 76.06 111.24 86.96 111.17 87.02 97.79 96.49 97.8 96.5 132.19"/>
      <path class="cls-1" d="M130.92,98.12l-.09,22.67c-.01,2.65-1.83,6.19-3.81,8.04-6.45,6.01-16.99,5.77-23.27-.23-2.35-2.24-3.62-5.75-3.63-8.89l-.04-21.9,9.84.07.16,23.15c.02,3.06,3.7,4.76,5.87,4.55,3.14-.31,5.27-2.67,5.3-6.07l.2-21.32,9.47-.07Z"/>
      <path class="cls-1" d="M174.5,127.48c-3.64,6.65-18.32,7.87-24.69,1.39-2.33-2.37-3.81-5.12-3.43-8.6l8.98-.03c.48,2.79,2.11,4.44,4.43,5.07s5.74.5,6.53-2.34c-1.7-5.74-20.67-2.76-18.77-16.72,1.21-8.85,13.89-11.19,22.07-6.7,3.43,1.88,5.74,5.13,5.66,8.73l-9.52-.16c-1.03-1.73-2.37-2.91-3.82-3.22-1.7-.37-4.25-.03-4.82,1.79s2.03,3.03,3.39,3.5l8.23,2.79c2.41.82,4.93,2.84,6.17,5.09,1.61,2.92,1.26,6.35-.42,9.42Z"/>
      <polygon class="cls-1" points="54.19 132.16 44.67 132.23 44.65 105.77 34.81 105.36 34.74 97.85 64.44 97.8 64.52 105.36 54.26 105.74 54.19 132.16"/>
      <polygon class="cls-1" points="144.46 132.2 134.53 132.26 134.52 97.88 144.38 97.8 144.46 132.2"/>
    </g>
  </g>
</svg>